<mxfile host="app.diagrams.net" modified="2024-05-10T07:16:58.428Z" agent="Mozilla/5.0 (Windows NT 10.0; Win64; x64) AppleWebKit/537.36 (KHTML, like Gecko) Chrome/124.0.0.0 Safari/537.36 Edg/124.0.0.0" etag="IR5wPkkdpgene4-LMvKo" version="24.3.1" type="github">
  <diagram name="第 1 页" id="wbL77T6v4ODWWqQwgH3e">
    <mxGraphModel dx="1425" dy="790" grid="1" gridSize="10" guides="1" tooltips="1" connect="1" arrows="1" fold="1" page="1" pageScale="1" pageWidth="827" pageHeight="1169" math="0" shadow="0">
      <root>
        <mxCell id="0" />
        <mxCell id="1" parent="0" />
        <mxCell id="HMC4-4hXIC59DEJLiAjA-1" value="GIC硬件中断控制器&lt;div&gt;drivers/irqchip/irq-gic.c&lt;br&gt;&lt;/div&gt;&lt;div&gt;&lt;br&gt;&lt;/div&gt;&lt;div&gt;数据结构是struct irq_chip(该数据结构静态定义，不是动态申请)&lt;/div&gt;" style="rounded=0;whiteSpace=wrap;html=1;" vertex="1" parent="1">
          <mxGeometry x="160" y="520" width="160" height="100" as="geometry" />
        </mxCell>
        <mxCell id="HMC4-4hXIC59DEJLiAjA-9" style="edgeStyle=orthogonalEdgeStyle;rounded=0;orthogonalLoop=1;jettySize=auto;html=1;exitX=0.5;exitY=0;exitDx=0;exitDy=0;entryX=0.5;entryY=1;entryDx=0;entryDy=0;" edge="1" parent="1" source="HMC4-4hXIC59DEJLiAjA-2" target="HMC4-4hXIC59DEJLiAjA-8">
          <mxGeometry relative="1" as="geometry" />
        </mxCell>
        <mxCell id="HMC4-4hXIC59DEJLiAjA-2" value="linux中中断控制器的抽象实现&lt;div&gt;kernel/irq/irq_domain.c(一个中断控制器就是一个中断domain)&lt;/div&gt;&lt;div&gt;&lt;br&gt;&lt;/div&gt;&lt;div&gt;数据结构是struct irq_domain&lt;/div&gt;" style="rounded=0;whiteSpace=wrap;html=1;" vertex="1" parent="1">
          <mxGeometry x="280" y="340" width="190" height="90" as="geometry" />
        </mxCell>
        <mxCell id="HMC4-4hXIC59DEJLiAjA-3" value="其他中断控制器&lt;div&gt;（具体看drivers/irqchip下面的文件）&lt;/div&gt;" style="rounded=0;whiteSpace=wrap;html=1;" vertex="1" parent="1">
          <mxGeometry x="450" y="520" width="160" height="100" as="geometry" />
        </mxCell>
        <mxCell id="HMC4-4hXIC59DEJLiAjA-5" value="" style="endArrow=classic;html=1;rounded=0;exitX=0.5;exitY=0;exitDx=0;exitDy=0;entryX=0.5;entryY=1;entryDx=0;entryDy=0;" edge="1" parent="1" source="HMC4-4hXIC59DEJLiAjA-1" target="HMC4-4hXIC59DEJLiAjA-2">
          <mxGeometry width="50" height="50" relative="1" as="geometry">
            <mxPoint x="360" y="410" as="sourcePoint" />
            <mxPoint x="410" y="360" as="targetPoint" />
          </mxGeometry>
        </mxCell>
        <mxCell id="HMC4-4hXIC59DEJLiAjA-7" value="" style="endArrow=classic;html=1;rounded=0;exitX=0.5;exitY=0;exitDx=0;exitDy=0;entryX=0.5;entryY=1;entryDx=0;entryDy=0;" edge="1" parent="1" source="HMC4-4hXIC59DEJLiAjA-3" target="HMC4-4hXIC59DEJLiAjA-2">
          <mxGeometry width="50" height="50" relative="1" as="geometry">
            <mxPoint x="360" y="410" as="sourcePoint" />
            <mxPoint x="410" y="360" as="targetPoint" />
          </mxGeometry>
        </mxCell>
        <mxCell id="HMC4-4hXIC59DEJLiAjA-12" style="edgeStyle=orthogonalEdgeStyle;rounded=0;orthogonalLoop=1;jettySize=auto;html=1;exitX=0.5;exitY=0;exitDx=0;exitDy=0;entryX=0.5;entryY=1;entryDx=0;entryDy=0;" edge="1" parent="1" source="HMC4-4hXIC59DEJLiAjA-8" target="HMC4-4hXIC59DEJLiAjA-11">
          <mxGeometry relative="1" as="geometry" />
        </mxCell>
        <mxCell id="HMC4-4hXIC59DEJLiAjA-8" value="struct irq_desc {&lt;div style=&quot;font-size: 10px;&quot;&gt;&amp;nbsp;&lt;span style=&quot;white-space: pre;&quot;&gt;&#x9;&lt;/span&gt;struct irq_data；中记录了GIC中断到linux软件中断之间的映射关系&lt;/div&gt;&lt;div style=&quot;font-size: 10px;&quot;&gt;&lt;span style=&quot;white-space: pre;&quot;&gt;&#x9;&lt;/span&gt;irqaction;&lt;br&gt;&lt;/div&gt;&lt;div&gt;}&lt;/div&gt;" style="rounded=0;whiteSpace=wrap;html=1;align=left;" vertex="1" parent="1">
          <mxGeometry x="275" y="210" width="200" height="60" as="geometry" />
        </mxCell>
        <mxCell id="HMC4-4hXIC59DEJLiAjA-10" value="提供上层软件以统一接口操作不同的中断控制器" style="text;html=1;align=center;verticalAlign=middle;whiteSpace=wrap;rounded=0;" vertex="1" parent="1">
          <mxGeometry x="490" y="370" width="140" height="30" as="geometry" />
        </mxCell>
        <mxCell id="HMC4-4hXIC59DEJLiAjA-11" value="struct irqaction {&lt;div&gt;&lt;span style=&quot;white-space: pre;&quot;&gt;&#x9;&lt;/span&gt;irq; linux内核软件中断号&lt;/div&gt;&lt;div&gt;&lt;span style=&quot;white-space: pre;&quot;&gt;&#x9;&lt;/span&gt;hadler；实际的中断处理函数&lt;br&gt;&lt;div style=&quot;font-size: 10px;&quot;&gt;&amp;nbsp;&lt;span style=&quot;background-color: initial; font-size: 12px;&quot;&gt;}&lt;/span&gt;&lt;/div&gt;&lt;/div&gt;&lt;div style=&quot;&quot;&gt;对应于一个request_irq申请的中断线&lt;/div&gt;" style="rounded=0;whiteSpace=wrap;html=1;align=left;" vertex="1" parent="1">
          <mxGeometry x="275" y="70" width="200" height="80" as="geometry" />
        </mxCell>
      </root>
    </mxGraphModel>
  </diagram>
</mxfile>
